<?xml version="1.0" encoding="utf-8"?>
<!-- Generator: Adobe Illustrator 24.1.1, SVG Export Plug-In . SVG Version: 6.00 Build 0)  -->
<svg version="1.1" id="Layer_1" xmlns="http://www.w3.org/2000/svg" xmlns:xlink="http://www.w3.org/1999/xlink" x="0px" y="0px"
	 viewBox="0 0 177.99 86.45" style="enable-background:new 0 0 177.99 86.45;" xml:space="preserve">
<style type="text/css">
	.st0{fill:#343434;}
</style>
<g>
	<g>
		<path class="st0" d="M80.13,86.45C80.13,86.45,80.13,86.45,80.13,86.45c-0.61,0-1.1-0.49-1.1-1.1c0.01-6.69,0.59-13.44,1.68-20.04
			c-7.39-1.89-14.26-4.14-20.82-6.28c-1.06-0.35-2.11-0.69-3.15-1.03c-13.01,9.26-23.5,12.16-34.04,12.87
			c-10.47,0.7-18.52-1.56-21.54-6.05c-1.38-2.06-1.54-4.41-0.45-6.63c2.4-4.9,10.23-8.25,20.94-8.97
			c11.39-0.76,22.37,2.37,34.7,6.35c7.04-5.12,14.86-12.16,23.88-21.79c0.41-0.44,1.11-0.47,1.55-0.05
			c0.44,0.41,0.47,1.11,0.05,1.55c-8.57,9.15-16.1,16.01-22.91,21.12c0.55,0.18,1.1,0.36,1.65,0.54c6.46,2.11,13.24,4.33,20.51,6.2
			c2.19-11.92,6.06-23.28,11.31-32.84c10.19-18.55,24.7-28.97,41.94-30.14c17.64-1.19,31.89,4.29,39.09,15.02
			c5.49,8.19,6.04,18.65,1.46,27.98c-7.44,15.16-25.95,24.81-50.77,26.49c-15.69,1.06-29.19-0.86-41.3-3.81
			c-1.05,6.47-1.59,13.04-1.6,19.51C81.23,85.96,80.73,86.45,80.13,86.45z M25.13,51.29c-1.11,0-2.22,0.04-3.33,0.11
			c-11.68,0.79-17.53,4.52-19.12,7.75c-0.74,1.51-0.64,3.04,0.3,4.44c1.99,2.96,8.17,5.85,19.57,5.08
			c9.8-0.66,19.56-3.29,31.56-11.52C43.85,53.87,34.51,51.29,25.13,51.29z M83.2,63.66c11.98,2.93,25.32,4.83,40.78,3.79
			c24.02-1.62,41.86-10.83,48.95-25.26c4.29-8.74,3.81-18.14-1.31-25.79C164.87,6.34,151.34,1.21,134.5,2.35
			C106.45,4.24,88.84,32.48,83.2,63.66z"/>
	</g>
</g>
</svg>
